<svg width="126" height="41" viewBox="0 0 126 41" fill="none" xmlns="http://www.w3.org/2000/svg">
<path fill-rule="evenodd" clip-rule="evenodd" d="M49.7847 0.200195L38.5306 20.5967L49.7847 40.9921H72.289L83.5431 20.5967L72.289 0.200195H49.7847ZM50.808 20.5956L55.9222 11.3271H66.1467L71.2609 20.5956L66.1467 29.8631H55.9222L50.808 20.5956ZM0.886719 12.0967V14.3878H3.578V29.0924H5.90555V14.3878H8.59782V12.0967H0.886719ZM16.7875 29.0934H9.85156V12.0967H16.7875V14.3878H12.1791V19.3777H16.1932V21.6688H12.1791V26.6588H16.7875V29.0934ZM26.0948 12.0967H23.6301L21.8511 17.1334L20.095 12.0967H17.6313L20.6655 20.1889L17.3789 29.0934H19.8446L21.8511 23.364L23.8815 29.0934H26.3452L22.991 20.1889L26.0948 12.0967ZM29.1493 14.3878H26.457V12.0967H34.1691V14.3878H31.4769V29.0934H29.1493V14.3878ZM91.265 12.0967H88.9375V29.0934H95.8734V26.6588H91.265V12.0967ZM112.723 12.2172C113.186 12.3929 113.608 12.6467 113.988 12.9805C114.353 13.331 114.65 13.7688 114.878 14.294C115.106 14.8192 115.221 15.4245 115.221 16.1078V16.9679H112.893V16.1078C112.893 15.5192 112.738 15.0855 112.426 14.8068C112.113 14.528 111.744 14.3887 111.319 14.3887C110.894 14.3887 110.526 14.528 110.213 14.8068C109.901 15.0855 109.745 15.5192 109.745 16.1078V25.084C109.745 25.6727 109.901 26.1064 110.213 26.3851C110.526 26.6638 110.894 26.8032 111.319 26.8032C111.744 26.8032 112.113 26.6638 112.426 26.3851C112.738 26.1064 112.893 25.6727 112.893 25.084V21.886H111.045V19.7364H115.221V25.084C115.221 25.7996 115.106 26.4132 114.878 26.9217C114.65 27.4324 114.353 27.8536 113.988 28.1874C113.608 28.5379 113.186 28.8 112.723 28.9747C112.259 29.1504 111.791 29.2378 111.319 29.2378C110.848 29.2378 110.38 29.1504 109.915 28.9747C109.452 28.8 109.039 28.5379 108.673 28.1874C108.294 27.8536 107.988 27.4324 107.761 26.9217C107.532 26.4132 107.418 25.7996 107.418 25.084V16.1078C107.418 15.4245 107.532 14.8192 107.761 14.294C107.988 13.7688 108.294 13.331 108.673 12.9805C109.039 12.6467 109.452 12.3929 109.915 12.2172C110.38 12.0424 110.848 11.9551 111.319 11.9551C111.791 11.9551 112.259 12.0424 112.723 12.2172ZM102.945 25.083C102.945 25.6716 102.79 26.1053 102.477 26.384C102.165 26.6638 101.796 26.8021 101.371 26.8021C100.946 26.8021 100.577 26.6638 100.265 26.384C99.9519 26.1053 99.7969 25.6716 99.7969 25.083V16.1068C99.7969 15.5192 99.9519 15.0855 100.265 14.8057C100.577 14.528 100.946 14.3887 101.371 14.3887C101.796 14.3887 102.165 14.528 102.477 14.8057C102.79 15.0855 102.945 15.5192 102.945 16.1068V25.083ZM104.04 12.9805C103.659 12.6467 103.238 12.3929 102.774 12.2172C102.31 12.0424 101.843 11.9551 101.371 11.9551C100.898 11.9551 100.431 12.0424 99.9672 12.2172C99.5031 12.3929 99.0897 12.6467 98.7249 12.9805C98.3443 13.331 98.0392 13.7688 97.8126 14.294C97.583 14.8192 97.4688 15.4245 97.4688 16.1078V25.084C97.4688 25.7996 97.583 26.4132 97.8126 26.9228C98.0392 27.4324 98.3443 27.8536 98.7249 28.1874C99.0897 28.5379 99.5031 28.8 99.9672 28.9747C100.431 29.1504 100.898 29.2378 101.371 29.2378C101.843 29.2378 102.31 29.1504 102.774 28.9747C103.238 28.8 103.659 28.5379 104.04 28.1874C104.405 27.8536 104.702 27.4324 104.928 26.9228C105.158 26.4132 105.272 25.7996 105.272 25.084V16.1078C105.272 15.4245 105.158 14.8192 104.928 14.294C104.702 13.7688 104.405 13.331 104.04 12.9805ZM122.372 26.384C122.685 26.1053 122.84 25.6716 122.84 25.083V16.1068C122.84 15.5192 122.685 15.0855 122.372 14.8057C122.06 14.528 121.691 14.3887 121.266 14.3887C120.84 14.3887 120.472 14.528 120.16 14.8057C119.846 15.0855 119.691 15.5192 119.691 16.1068V25.083C119.691 25.6716 119.846 26.1053 120.16 26.384C120.472 26.6638 120.84 26.8021 121.266 26.8021C121.691 26.8021 122.06 26.6638 122.372 26.384ZM123.934 12.9805C124.299 13.331 124.596 13.7688 124.823 14.294C125.053 14.8192 125.167 15.4245 125.167 16.1078V25.084C125.167 25.7996 125.053 26.4132 124.823 26.9228C124.596 27.4324 124.299 27.8536 123.934 28.1874C123.554 28.5379 123.132 28.8 122.668 28.9747C122.204 29.1504 121.737 29.2378 121.265 29.2378C120.793 29.2378 120.326 29.1504 119.862 28.9747C119.398 28.8 118.984 28.5379 118.619 28.1874C118.239 27.8536 117.934 27.4324 117.707 26.9228C117.478 26.4132 117.363 25.7996 117.363 25.084V16.1078C117.363 15.4245 117.478 14.8192 117.707 14.294C117.934 13.7688 118.239 13.331 118.619 12.9805C118.984 12.6467 119.398 12.3929 119.862 12.2172C120.326 12.0424 120.793 11.9551 121.265 11.9551C121.737 11.9551 122.204 12.0424 122.668 12.2172C123.132 12.3929 123.554 12.6467 123.934 12.9805Z" fill="white"/>
</svg>
