<svg width="433" height="37" viewBox="0 0 433 37" fill="none" xmlns="http://www.w3.org/2000/svg">
<path d="M411.68 36.0268C410.197 36.0268 409.455 35.2851 409.455 33.8016V2.33068C409.455 0.847207 410.197 0.105469 411.68 0.105469H430.701C432.184 0.105469 432.926 0.847207 432.926 2.33068C432.926 3.81416 432.184 4.5559 430.701 4.5559H413.905V15.682H424.449C425.932 15.682 426.674 16.4237 426.674 17.9072C426.674 19.3907 425.932 20.1324 424.449 20.1324H413.905V31.5764H430.701C432.184 31.5764 432.926 32.3181 432.926 33.8016C432.926 35.2851 432.184 36.0268 430.701 36.0268H411.68Z" fill="#EFE9E7"/>
<path d="M373.497 36.0268C372.013 36.0268 371.271 35.2851 371.271 33.8016V2.33068C371.271 0.847207 372.013 0.105469 373.497 0.105469H386.265C390.874 0.105469 394.265 1.20041 396.437 3.39031C398.627 5.56254 399.722 8.95335 399.722 13.5627V22.5695C399.722 27.1789 398.636 30.5785 396.464 32.7684C394.309 34.9407 390.91 36.0268 386.265 36.0268H373.497ZM375.722 31.5764H386.265C388.526 31.5764 390.309 31.3026 391.616 30.7551C392.941 30.19 393.877 29.254 394.424 27.9471C394.989 26.6226 395.272 24.8301 395.272 22.5695V13.5627C395.272 11.3198 394.989 9.54497 394.424 8.2381C393.877 6.91357 392.941 5.96873 391.616 5.4036C390.309 4.83847 388.526 4.5559 386.265 4.5559H375.722V31.5764Z" fill="#EFE9E7"/>
<path d="M343.322 36.0268C339.277 36.0268 336.284 35.0643 334.341 33.1393C332.416 31.1966 331.454 28.2032 331.454 24.159V11.9203C331.454 7.84072 332.425 4.84727 334.368 2.93995C336.31 1.01496 339.295 0.0701264 343.322 0.105447H349.679C353.741 0.105447 356.735 1.06794 358.66 2.99293C360.585 4.91791 361.547 7.91136 361.547 11.9733V24.159C361.547 28.2032 360.585 31.1966 358.66 33.1393C356.735 35.0643 353.741 36.0268 349.679 36.0268H343.322ZM343.322 31.5763H349.679C351.569 31.5763 353.053 31.3556 354.13 30.9141C355.207 30.4549 355.967 29.6867 356.408 28.6094C356.867 27.5321 357.097 26.0486 357.097 24.159V11.9733C357.097 10.1013 356.867 8.6266 356.408 7.54932C355.967 6.47203 355.207 5.7038 354.13 5.24463C353.053 4.78546 351.569 4.55587 349.679 4.55587H343.322C341.45 4.53821 339.975 4.75014 338.898 5.19165C337.82 5.63316 337.052 6.39256 336.593 7.46985C336.134 8.54713 335.904 10.0306 335.904 11.9203V24.159C335.904 26.0486 336.125 27.5321 336.567 28.6094C337.026 29.6867 337.794 30.4549 338.871 30.9141C339.949 31.3556 341.432 31.5763 343.322 31.5763Z" fill="#EFE9E7"/>
<path d="M306.431 36.0268C302.387 36.0268 299.394 35.0643 297.451 33.1393C295.526 31.1966 294.564 28.2032 294.564 24.1589V11.9732C294.564 7.89369 295.526 4.89141 297.451 2.96643C299.376 1.02378 302.352 0.0701179 306.378 0.105438H312.789C316.109 0.105438 318.644 0.794195 320.392 2.17171C322.14 3.53156 323.156 5.68613 323.438 8.63543C323.544 9.37716 323.403 9.9423 323.015 10.3308C322.626 10.7194 322.061 10.9136 321.319 10.9136C319.977 10.9136 319.2 10.1719 318.988 8.68841C318.811 7.06365 318.246 5.9687 317.293 5.40357C316.357 4.83843 314.855 4.55586 312.789 4.55586H306.378C304.506 4.53821 303.032 4.75013 301.954 5.19164C300.895 5.63315 300.135 6.40138 299.676 7.49633C299.235 8.57361 299.014 10.0659 299.014 11.9732V24.1589C299.014 26.0486 299.235 27.5321 299.676 28.6094C300.135 29.6867 300.904 30.4549 301.981 30.9141C303.058 31.3556 304.542 31.5763 306.431 31.5763H312.789C314.855 31.5763 316.357 31.2938 317.293 30.7286C318.246 30.1458 318.811 29.0509 318.988 27.4438C319.2 25.9603 319.977 25.2186 321.319 25.2186C322.061 25.2186 322.626 25.4128 323.015 25.8014C323.403 26.1899 323.544 26.755 323.438 27.4968C323.156 30.4637 322.14 32.6271 320.392 33.987C318.644 35.3468 316.109 36.0268 312.789 36.0268H306.431Z" fill="#EFE9E7"/>
<path d="M243.216 36.0268C241.733 36.0268 240.991 35.2851 240.991 33.8016V2.33068C240.991 0.847207 241.733 0.105469 243.216 0.105469H255.985C260.594 0.105469 263.985 1.20041 266.157 3.39031C268.347 5.56254 269.442 8.95335 269.442 13.5627V22.5695C269.442 27.1789 268.356 30.5785 266.184 32.7684C264.029 34.9407 260.63 36.0268 255.985 36.0268H243.216ZM245.442 31.5764H255.985C258.245 31.5764 260.029 31.3026 261.336 30.7551C262.661 30.19 263.597 29.254 264.144 27.9471C264.709 26.6226 264.992 24.8301 264.992 22.5695V13.5627C264.992 11.3198 264.709 9.54497 264.144 8.2381C263.597 6.91357 262.661 5.96873 261.336 5.4036C260.029 4.83847 258.245 4.5559 255.985 4.5559H245.442V31.5764Z" fill="#EFE9E7"/>
<path d="M203.118 36.0268C201.635 36.0268 200.893 35.2851 200.893 33.8016V2.33068C200.893 0.847207 201.635 0.105469 203.118 0.105469C203.878 0.105469 204.619 0.546979 205.343 1.43L226.642 28.8743H225.529V2.33068C225.529 0.847207 226.271 0.105469 227.755 0.105469C229.238 0.105469 229.98 0.847207 229.98 2.33068V33.8016C229.98 35.2851 229.238 36.0268 227.755 36.0268C226.96 36.0268 226.218 35.5853 225.529 34.7023L204.231 7.25794H205.343V33.8016C205.343 35.2851 204.602 36.0268 203.118 36.0268Z" fill="#EFE9E7"/>
<path d="M172.943 36.0268C168.899 36.0268 165.906 35.0643 163.963 33.1393C162.038 31.1966 161.076 28.2032 161.076 24.159V11.9203C161.076 7.84072 162.047 4.84727 163.99 2.93995C165.932 1.01496 168.917 0.0701264 172.943 0.105447H179.301C183.363 0.105447 186.356 1.06794 188.281 2.99293C190.206 4.91791 191.169 7.91136 191.169 11.9733V24.159C191.169 28.2032 190.206 31.1966 188.281 33.1393C186.356 35.0643 183.363 36.0268 179.301 36.0268H172.943ZM172.943 31.5763H179.301C181.191 31.5763 182.674 31.3556 183.752 30.9141C184.829 30.4549 185.588 29.6867 186.03 28.6094C186.489 27.5321 186.719 26.0486 186.719 24.159V11.9733C186.719 10.1013 186.489 8.6266 186.03 7.54932C185.588 6.47203 184.829 5.7038 183.752 5.24463C182.674 4.78546 181.191 4.55587 179.301 4.55587H172.943C171.071 4.53821 169.597 4.75014 168.519 5.19165C167.442 5.63316 166.674 6.39256 166.215 7.46985C165.756 8.54713 165.526 10.0306 165.526 11.9203V24.159C165.526 26.0486 165.747 27.5321 166.188 28.6094C166.647 29.6867 167.416 30.4549 168.493 30.9141C169.57 31.3556 171.054 31.5763 172.943 31.5763Z" fill="#EFE9E7"/>
<path d="M141.613 36.0269C140.13 36.0269 139.388 35.2852 139.388 33.8017V22.9935L127.255 3.65536C126.514 2.38381 126.743 1.34185 127.944 0.529466C129.216 -0.247593 130.24 -0.0180073 131.017 1.21822L141.613 18.2252L152.739 1.21822C153.11 0.635428 153.56 0.291049 154.09 0.185088C154.62 0.0614657 155.176 0.211578 155.759 0.635427C157.048 1.43015 157.278 2.43679 156.448 3.65536L143.838 22.9935V33.8017C143.838 35.2852 143.097 36.0269 141.613 36.0269Z" fill="#EFE9E7"/>
<path d="M101.398 36.0268C99.9148 36.0268 99.1731 35.2851 99.1731 33.8016V2.33068C99.1731 0.847207 99.9148 0.105469 101.398 0.105469H120.419C121.902 0.105469 122.644 0.847207 122.644 2.33068C122.644 3.81416 121.902 4.5559 120.419 4.5559H103.624V15.682H114.167C115.65 15.682 116.392 16.4237 116.392 17.9072C116.392 19.3907 115.65 20.1324 114.167 20.1324H103.624V31.5764H120.419C121.902 31.5764 122.644 32.3181 122.644 33.8016C122.644 35.2851 121.902 36.0268 120.419 36.0268H101.398Z" fill="#EFE9E7"/>
<path d="M65.7498 36.0268C64.2663 36.0268 63.5245 35.2851 63.5245 33.8016V2.33068C63.5245 0.847207 64.2663 0.105469 65.7498 0.105469H79.5779C82.3859 0.105469 84.5405 0.847207 86.0416 2.33068C87.5604 3.81416 88.3198 5.93341 88.3198 8.68844V10.1189C88.3198 12.5031 87.5692 14.3486 86.0681 15.6555C88.8761 17.2273 90.2801 20.0971 90.2801 24.2649V26.0663C90.2801 29.3158 89.4147 31.7883 87.684 33.4837C85.9709 35.1791 83.4985 36.0268 80.2666 36.0268H65.7498ZM67.975 31.5764H80.2666C82.2623 31.5764 83.6839 31.1525 84.5316 30.3048C85.397 29.4394 85.8297 28.0266 85.8297 26.0663V24.2649C85.8297 22.3046 85.4146 20.9095 84.5846 20.0794C83.7546 19.2317 82.3152 18.8079 80.2666 18.8079H67.975V31.5764ZM67.975 14.3574H80.5315C81.8207 14.3574 82.6949 13.9601 83.1541 13.1654C83.6309 12.3706 83.8694 11.3552 83.8694 10.1189V8.68844C83.8694 7.15198 83.5515 6.08352 82.9157 5.48307C82.2799 4.86495 81.1673 4.5559 79.5779 4.5559H67.975V14.3574Z" fill="#EFE9E7"/>
<path fill-rule="evenodd" clip-rule="evenodd" d="M31.695 33.8561C31.695 35.0496 32.6626 36.0171 33.8561 36.0171C35.0496 36.0171 36.0171 35.0496 36.0171 33.8561L36.0171 4.32222C36.0171 4.32217 36.0171 4.32211 36.0171 4.32206C36.0171 3.81793 35.9308 3.33396 35.7721 2.88412C35.1796 1.20401 33.5779 0 31.695 0V0.000164978H2.16103C0.967525 0.000164978 0 0.96769 0 2.16119C0 3.35469 0.967525 4.32222 2.16103 4.32222H28.5961L2.06568 30.8527C1.22349 31.6949 1.22349 33.0603 2.06568 33.9025C2.90787 34.7447 4.27333 34.7447 5.11552 33.9025L31.695 7.323L31.695 33.8561Z" fill="#FF7F50"/>
</svg>
