<?xml version="1.0" encoding="utf-8"?>
<!-- Generator: Adobe Illustrator 27.7.0, SVG Export Plug-In . SVG Version: 6.00 Build 0)  -->
<svg version="1.1" id="Layer_1" xmlns="http://www.w3.org/2000/svg" xmlns:xlink="http://www.w3.org/1999/xlink" x="0px" y="0px"
	 viewBox="0 0 50 50" style="enable-background:new 0 0 50 50;" xml:space="preserve">
<style type="text/css">
	.st0{fill-rule:evenodd;clip-rule:evenodd;fill:#FF7F50;}
</style>
<path class="st0" d="M41.2,44.1c0,1.4,1.1,2.6,2.6,2.6s2.6-1.1,2.6-2.6V9c0,0,0,0,0,0c0-0.6-0.1-1.2-0.3-1.7c-0.7-2-2.6-3.4-4.8-3.4
	v0h-35C4.8,3.9,3.6,5,3.6,6.5S4.8,9,6.2,9h31.4L6.1,40.5c-1,1-1,2.6,0,3.6s2.6,1,3.6,0l31.5-31.5V44.1z"/>
</svg>
